<?xml version="1.0" encoding="UTF-8"?>
<svg width="500px" height="499px" viewBox="0 0 500 499" version="1.1" xmlns="http://www.w3.org/2000/svg" xmlns:xlink="http://www.w3.org/1999/xlink">
    <!-- Generator: Sketch 53.1 (72631) - https://sketchapp.com -->
    <title>ticket</title>
    <desc>Created with Sketch.</desc>
    <g id="Page-1" stroke="none" stroke-width="1" fill="none" fill-rule="evenodd">
        <g id="Artboard" transform="translate(-129.000000, -56.000000)" fill-rule="nonzero">
            <g id="ticket" transform="translate(378.690169, 305.690169) rotate(-315.000000) translate(-378.690169, -305.690169) translate(239.190169, 73.690169)">
                <path d="M278.53125,31.210938 L278.53125,92.730469 L255.578125,139.101562 L255.671875,139.289062 L255.109375,139.570312 L23.75,139.570312 L23.191406,139.289062 L23.28125,139.101562 L0.328125,92.730469 L0.339844,31.210938 C0.335938,13.972656 14.3125,-0.00390625 31.550781,3.55271378e-15 L79.949219,3.55271378e-15 C85.101562,27.640625 109.921875,48.710938 139.429688,49.179688 C168.941406,49.648438 193.289062,28.101562 198.910156,3.55271378e-15 L247.320312,3.55271378e-15 C264.554688,0.00390625 278.523438,13.976562 278.53125,31.210938 Z" id="Path" fill="#EE9FB6"></path>
                <path d="M134.339844,199.859375 C132.800781,199.980469 131.261719,200.148438 129.710938,200.371094 C93.234375,205.550781 67.207031,238.394531 70.507812,275.089844 C73.808594,311.785156 105.273438,339.460938 142.089844,338.050781 L142.089844,338.039062 C144.453125,337.949219 146.808594,337.734375 149.148438,337.398438 C186.089844,332.15625 212.226562,298.570312 208.230469,261.472656 C204.234375,224.375 171.550781,197.121094 134.339844,199.859375 L134.339844,199.859375 Z M255.671875,139.289062 L278.53125,185.460938 L278.519531,432.449219 C278.523438,449.6875 264.546875,463.664062 247.308594,463.660156 L194.21875,463.648438 C191.191406,432.550781 165.046875,408.828125 133.800781,408.832031 C102.550781,408.832031 76.410156,432.558594 73.390625,463.660156 L31.539062,463.660156 C14.304688,463.65625 0.335938,449.683594 0.328125,432.449219 L0.328125,185.46875 L23.191406,139.289062 L23.75,139.570312 L255.109375,139.570312 L255.671875,139.289062 Z" id="Shape" fill="#6044F2"></path>
            </g>
        </g>
    </g>
</svg>